<svg data-v-fde0c5aa="" xmlns="http://www.w3.org/2000/svg" viewBox="0 0 300 300" class="iconLeft"><!----><defs data-v-fde0c5aa=""><!----></defs><rect data-v-fde0c5aa="" fill="#A3BC8B" x="0" y="0" width="300px" height="300px" class="logo-background-square"></rect><defs data-v-fde0c5aa=""><!----></defs><g data-v-fde0c5aa="" id="0eed9447-c633-4bc7-bab0-f1d5abcfd4fb" fill="#1C484D" transform="matrix(3.943232554150832,0,0,3.943232554150832,131.3323134331195,111.25774090758)"><path d="M6.64 6.24L7.35 6.24L3.60 14.55Q3.18 15.51 2.63 15.92Q2.07 16.32 1.32 16.32L1.32 16.32Q0.81 16.32 0.37 16.16Q-0.07 15.99-0.38 15.67L-0.38 15.67L-0.03 15.13Q0.53 15.71 1.33 15.71L1.33 15.71Q1.86 15.71 2.24 15.41Q2.62 15.12 2.94 14.41L2.94 14.41L3.33 13.52L0.04 6.24L0.78 6.24L3.71 12.78L6.64 6.24ZM11.12 6.19Q12.47 6.19 13.20 6.88Q13.93 7.57 13.93 8.92L13.93 8.92L13.93 13.55L13.26 13.55L13.26 12.25Q12.91 12.89 12.24 13.25Q11.56 13.61 10.63 13.61L10.63 13.61Q9.41 13.61 8.70 13.03Q7.99 12.46 7.99 11.52L7.99 11.52Q7.99 10.61 8.64 10.04Q9.30 9.48 10.72 9.48L10.72 9.48L13.23 9.48L13.23 8.89Q13.23 7.87 12.68 7.34Q12.12 6.80 11.06 6.80L11.06 6.80Q10.33 6.80 9.67 7.06Q9.00 7.31 8.54 7.73L8.54 7.73L8.19 7.22Q8.74 6.73 9.51 6.46Q10.28 6.19 11.12 6.19L11.12 6.19ZM10.72 13.03Q11.63 13.03 12.27 12.61Q12.91 12.19 13.23 11.40L13.23 11.40L13.23 10.02L10.74 10.02Q9.66 10.02 9.18 10.42Q8.69 10.81 8.69 11.49L8.69 11.49Q8.69 12.21 9.23 12.62Q9.76 13.03 10.72 13.03L10.72 13.03ZM25.91 6.19Q27.27 6.19 28.05 6.99Q28.83 7.78 28.83 9.28L28.83 9.28L28.83 13.55L28.13 13.55L28.13 9.34Q28.13 8.11 27.52 7.46Q26.92 6.82 25.84 6.82L25.84 6.82Q24.61 6.82 23.89 7.59Q23.17 8.36 23.17 9.66L23.17 9.66L23.17 13.55L22.47 13.55L22.47 9.34Q22.47 8.11 21.87 7.46Q21.27 6.82 20.19 6.82L20.19 6.82Q18.96 6.82 18.24 7.59Q17.51 8.36 17.51 9.66L17.51 9.66L17.51 13.55L16.81 13.55L16.81 6.24L17.49 6.24L17.49 7.81Q17.85 7.04 18.57 6.61Q19.29 6.19 20.29 6.19L20.29 6.19Q21.28 6.19 21.97 6.64Q22.67 7.08 22.96 7.95L22.96 7.95Q23.32 7.14 24.10 6.66Q24.88 6.19 25.91 6.19L25.91 6.19ZM31.71 13.55L31.71 6.24L32.41 6.24L32.41 13.55L31.71 13.55ZM32.06 4.47Q31.82 4.47 31.65 4.30Q31.49 4.14 31.49 3.91L31.49 3.91Q31.49 3.67 31.65 3.50Q31.82 3.33 32.06 3.33L32.06 3.33Q32.30 3.33 32.47 3.49Q32.63 3.65 32.63 3.89L32.63 3.89Q32.63 4.13 32.47 4.30Q32.30 4.47 32.06 4.47L32.06 4.47Z"></path></g><defs data-v-fde0c5aa=""><!----></defs><g data-v-fde0c5aa="" id="21b2781c-3846-4640-ad19-7c1a3d53bd8c" stroke="none" fill="#1C484D" transform="matrix(0.8009369823767427,0,0,0.8009369823767427,27.156978665134332,98.74003618322058)"><path d="M102.465 16.035h-76.93c-5.238 0-9.5 4.262-9.5 9.5v76.93c0 5.238 4.262 9.5 9.5 9.5h76.93c5.238 0 9.5-4.262 9.5-9.5v-76.93c0-5.238-4.262-9.5-9.5-9.5zM63.924 92.913a2.5 2.5 0 01-2.836-2.112c-1.792-12.254-14.509-20.577-28.357-18.553a2.5 2.5 0 11-.723-4.947c16.57-2.426 31.837 7.794 34.028 22.776a2.501 2.501 0 01-2.112 2.836zm16.686-4.729a2.5 2.5 0 01-2.835-2.112c-1.387-9.487-6.837-17.817-15.347-23.454-8.596-5.695-19.268-7.964-30.051-6.386a2.5 2.5 0 11-.723-4.947c12.003-1.755 23.912.79 33.536 7.165 9.711 6.433 15.938 15.986 17.532 26.9a2.5 2.5 0 01-2.112 2.834zm15.736-5.351a2.5 2.5 0 01-2.836-2.112c-3.86-26.396-31.114-44.346-60.751-40.013a2.5 2.5 0 11-.723-4.947c32.365-4.73 62.163 15.112 66.422 44.236a2.5 2.5 0 01-2.112 2.836z"></path></g><!----></svg>